Coordinates
version=1
nRows=30
nColumns=19
inDegrees=yes

Units are S.I. units (second, meters, Newtons, ...)
If the header above contains a line with 'inDegrees', this indicates whether rotational values are in degrees (yes) or radians (no).

endheader
time	pelvis_tilt	pelvis_list	pelvis_rotation	pelvis_tx	pelvis_ty	pelvis_tz	hip_flexion_r	hip_adduction_r	hip_rotation_r	knee_angle_r	knee_angle_r_beta	ankle_angle_r	hip_flexion_l	hip_adduction_l	hip_rotation_l	knee_angle_l	knee_angle_l_beta	ankle_angle_l
     11.21333333	     -1.27087921	     -7.59421086	     -8.74386220	      2.34598812	      1.06083137	      1.09721310	     16.59252027	     12.62866011	      2.23654412	      8.44573931	      0.14740596	      4.97467286	    -17.63402118	    -10.33501446	    -15.72790042	     71.02250775	      1.23957660	     -8.73297925
     11.22000000	     -0.37570462	     -8.10854154	     -8.86483225	      2.34479995	      1.05632940	      1.09689725	     16.08561374	     13.03466559	      2.36598714	     11.24525428	      0.19626671	      5.13576269	    -17.22700383	    -11.00005488	    -15.32140864	     74.65336497	      1.30294702	     -8.37693864
     11.22666667	     -0.41886347	     -8.13390086	     -9.01366661	      2.34317034	      1.05043768	      1.09674497	     17.01410841	     13.05519224	      2.18626026	     14.84992727	      0.25918012	      5.57825282	    -15.45593091	    -11.30511034	    -14.53607416	     78.47729851	      1.36968725	     -7.99494372
     11.23333333	     -0.15862630	     -8.26834524	     -9.06428644	      2.34145752	      1.04458956	      1.09645120	     17.59894018	     13.10817387	      1.84563597	     18.53360146	      0.32347237	      6.18862614	    -13.96890115	    -11.71858229	    -13.75009692	     82.16758305	      1.43409486	     -7.62177921
     11.24000000	      0.10341000	     -8.30289425	     -9.02826151	      2.33952541	      1.03859146	      1.09607203	     18.23625561	     13.00967178	      1.35021798	     22.35400412	      0.39015097	      7.04512243	    -12.32403876	    -12.02921376	    -12.80726046	     85.77959712	      1.49713640	     -7.27228972
     11.24666667	      0.34837344	     -8.24947577	     -8.89909954	      2.33741157	      1.03251362	      1.09556135	     18.87586697	     12.77245417	      0.77291466	     26.18061859	      0.45693799	      8.20668197	    -10.50703787	    -12.25068357	    -11.72239712	     89.29013160	      1.55840679	     -6.95523311
     11.25333333	      0.59659265	     -8.10420083	     -8.68943149	      2.33507648	      1.02654813	      1.09494682	     19.43947250	     12.39981196	      0.19262778	     29.90061426	      0.52186417	      9.63538281	     -8.54208840	    -12.35220620	    -10.51149482	     92.66843472	      1.61736930	     -6.63438293
     11.26000000	      0.93201434	     -7.86044491	     -8.37674120	      2.33253589	      1.02093067	      1.09419966	     19.76905491	     11.88209866	     -0.33664409	     33.38397772	      0.58266033	     11.35129873	     -6.51670522	    -12.29979948	     -9.17988668	     95.86767867	      1.67320664	     -6.42655344
     11.26666667	      1.14715456	     -7.53933922	     -8.08946286	      2.32978612	      1.01553544	      1.09343726	     20.04753766	     11.31613234	     -0.69895386	     36.58320346	      0.63849735	     13.24637169	     -4.26172776	    -12.13514658	     -7.86526082	     98.88056235	      1.72579138	     -6.16776650
     11.27333333	      1.25915768	     -7.15049986	     -7.82296482	      2.32689153	      1.01057304	      1.09282687	     20.19137593	     10.73575675	     -0.86673505	     39.37870239	      0.68728801	     15.25945622	     -1.80328710	    -11.88663254	     -6.58687210	    101.66663141	      1.77441746	     -5.96531871
     11.28000000	      1.41733320	     -6.68299900	     -7.53139356	      2.32389338	      1.00630135	      1.09216167	     20.02634058	     10.07445724	     -0.91142670	     41.73385208	      0.72839313	     17.33787294	      0.68138311	    -11.48421296	     -5.34041985	    104.16745962	      1.81806514	     -5.77892355
     11.28666667	      2.05530649	     -6.53759352	     -7.47088715	      2.32111118	      1.00328336	      1.09192051	     18.88882045	      9.83890824	     -0.56808961	     43.41680157	      0.75776614	     19.49844811	      2.42997236	    -11.44945701	     -4.54735607	    106.22555519	      1.85398569	     -5.51258179
     11.29333333	      1.43215168	     -5.62150357	     -7.13664993	      2.31801633	      0.99960971	      1.09131144	     19.14848703	      8.79669050	     -0.47392183	     44.99788983	      0.78536133	     21.38924409	      5.99778928	    -10.50151984	     -3.29652899	    108.21599805	      1.88872547	     -5.35496929
     11.30000000	      1.48001018	     -5.02124667	     -6.98647853	      2.31534109	      0.99756261	      1.09103501	     18.21343359	      8.09466923	     -0.12415620	     45.87078837	      0.80059629	     23.21490264	      8.55914421	     -9.89064755	     -2.53183738	    109.66488386	      1.91401330	     -5.10560407
     11.30666667	      1.62947702	     -4.42599597	     -6.88963146	      2.31306668	      0.99650584	      1.09095809	     16.85661295	      7.39452082	      0.29727805	     46.22541574	      0.80678570	     24.82169169	     10.89303162	     -9.28899852	     -2.00307746	    110.68603956	      1.93183583	     -4.77555572
     11.31333333	      1.59368815	     -3.81527137	     -6.86939731	      2.31114543	      0.99609413	      1.09110930	     15.44615055	      6.71642304	      0.79462451	     46.14295660	      0.80534652	     26.14154168	     13.31954089	     -8.72948243	     -1.70037754	    111.32844771	      1.94304796	     -4.39408999
     11.32000000	      1.57046014	     -3.36632598	     -6.98761135	      2.30987823	      0.99670410	      1.09163561	     13.68292657	      6.25152163	      1.44345931	     45.49096066	      0.79396704	     26.97691062	     15.50466624	     -8.45584565	     -1.69075116	    111.52663280	      1.94650695	     -3.92176586
     11.32666667	      1.40376765	     -2.82970885	     -7.09461741	      2.30902311	      0.99785348	      1.09224895	     11.92893940	      5.63399586	      1.94003592	     44.56435651	      0.77779475	     27.54367754	     17.73012120	     -8.12473595	     -1.83541368	    111.36749995	      1.94372955	     -3.38838875
     11.33333333	      1.13202019	     -2.20438738	     -7.13139985	      2.30856786	      0.99959554	      1.09287290	     10.16322918	      4.91488391	      2.40094200	     43.36727994	      0.75690182	     27.77356009	     19.95691859	     -7.69006645	     -2.07232370	    110.86158599	      1.93489969	     -2.79514182
     11.34000000	      0.78393910	     -1.52120243	     -7.12037795	      2.30869355	      1.00203784	      1.09362086	      8.33662375	      4.11876192	      2.78460118	     41.88242519	      0.73098622	     27.53534173	     22.08883225	     -7.21867283	     -2.42997333	    109.96909581	      1.91932280	     -2.15255545
     11.34666667	      0.38240005	     -0.85562624	     -7.10573298	      2.30930101	      1.00512805	      1.09439820	      6.44871465	      3.31961557	      3.09782510	     40.12766102	      0.70035981	     26.74310098	     24.08896699	     -6.80149431	     -2.92916814	    108.73990540	      1.89786938	     -1.48109367
     11.35333333	      1.31446670	     -0.24887711	     -7.01780879	      2.31071764	      1.01053687	      1.09515298	      2.84817288	      2.34279914	      3.18651225	     37.81468028	      0.65999068	     25.38523971	     24.26009722	     -6.30449101	     -3.63293083	    106.93495004	      1.86636696	     -0.69965600
     11.36000000	      0.45897391	      0.33433603	     -7.03941661	      2.31220809	      1.01422954	      1.09608831	      1.35624624	      1.66677583	      3.41532403	     35.76328133	      0.62418701	     23.54856268	     26.38379260	     -6.13894837	     -4.35972791	    105.15333755	      1.83527196	     -0.02346279
     11.36666667	     -0.32541958	      0.90625378	     -6.96816269	      2.31400220	      1.01852976	      1.09677223	     -0.25409315	      0.96297795	      3.50049366	     33.52886178	      0.58518903	     21.04487328	     28.26532777	     -5.95401855	     -5.14109288	    103.08511192	      1.79917461	      0.63054777
     11.37333333	      1.09930373	      1.30144547	     -6.72917490	      2.31672400	      1.02594964	      1.09739625	     -4.67263986	      0.16147483	      3.31064333	     30.42158514	      0.53095682	     17.81965342	     27.30270946	     -5.62458758	     -5.94605182	    100.42396675	      1.75272887	      1.39780809
     11.38000000	      0.99049378	      1.77771106	     -6.58248018	      2.31939364	      1.03178242	      1.09794727	     -7.14346827	     -0.53456966	      3.14431470	     27.72971258	      0.48397479	     14.22754661	     28.00539537	     -5.44182101	     -6.84082575	     97.75908522	      1.70621791	      2.04170696
     11.38666667	      0.83851360	      2.20577673	     -6.39725593	      2.32235765	      1.03778492	      1.09836864	     -9.54303307	     -1.16943069	      2.88139068	     24.98380028	      0.43604957	     10.19398780	     28.58663362	     -5.29959815	     -7.75640896	     94.88097100	      1.65598534	      2.66676599
     11.39333333	      0.66520128	      2.59750050	     -6.19296445	      2.32552598	      1.04386481	      1.09871969	    -11.87478543	     -1.74863341	      2.53678147	     22.22119506	      0.38783302	      5.89571568	     29.03759126	     -5.20987514	     -8.73784145	     91.81409967	      1.60245834	      3.24317628
     11.40000000	      0.48507055	      2.99033243	     -6.03546015	      2.32889891	      1.04997318	      1.09896034	    -14.11464972	     -2.33551551	      2.15794807	     19.52209089	      0.34072476	      1.44864935	     29.32363746	     -5.10882425	     -9.81538555	     88.53613942	      1.54524714	      3.81320755
     11.40666667	      0.03044566	      3.18465269	     -5.67163539	      2.33230261	      1.05557959	      1.09883181	    -15.97852549	     -2.62826503	      1.57150120	     16.97729391	      0.29630968	     -2.95993466	     29.85188207	     -5.10806661	    -10.65663060	     85.19886570	      1.48700073	      4.35990295
